<svg width="46" height="51" viewBox="0 0 46 51" fill="none" xmlns="http://www.w3.org/2000/svg">
<path fill-rule="evenodd" clip-rule="evenodd" d="M23.2224 4.75637L41.1636 22.6976C46.0347 27.5686 46.8204 35.8961 40.7612 41.9553C36.0606 46.6559 28.6956 47.1062 23.4842 43.307L17.2189 49.5722C15.8718 50.9193 13.5751 49.8739 13.6854 47.9881L14.4628 34.5141L3.96371 24.0151C-0.895159 19.1562 -1.70608 10.8295 4.36609 4.75735C9.56484 -0.441394 18.0246 -0.441394 23.2224 4.75637ZM11.8171 12.6086C10.8141 13.6116 10.8141 15.2368 11.8171 16.2398C12.8192 17.2419 14.4443 17.2419 15.4473 16.2388C16.4494 15.2368 16.4494 13.6116 15.4473 12.6096C14.4443 11.6065 12.8192 11.6065 11.8171 12.6086ZM20.7486 25.1713C19.7466 24.1693 19.7466 22.5441 20.7496 21.5411C21.7517 20.5391 23.3768 20.5391 24.3789 21.5411C25.3809 22.5432 25.3809 24.1683 24.3789 25.1704C23.3758 26.1734 21.7507 26.1734 20.7486 25.1713ZM29.6811 30.4726C28.6781 31.4757 28.6781 33.1008 29.6811 34.1038C30.6832 35.1059 32.3083 35.1059 33.3114 34.1029C34.3134 33.1008 34.3134 31.4757 33.3114 30.4736C32.3083 29.4706 30.6832 29.4706 29.6811 30.4726Z" fill="#5A1CBB"/>
</svg>
